<?xml version="1.0" encoding="utf-8"?>
<!-- Generator: Adobe Illustrator 26.5.0, SVG Export Plug-In . SVG Version: 6.00 Build 0)  -->
<svg version="1.1" id="Layer_1" xmlns="http://www.w3.org/2000/svg" xmlns:xlink="http://www.w3.org/1999/xlink" x="0px" y="0px"
	 viewBox="0 0 1000 800" style="enable-background:new 0 0 1000 800;" xml:space="preserve">
<style type="text/css">
	
		.st0{fill:url(#SVGID_1_);stroke:url(#SVGID_00000006690157425878640110000015054105854260923304_);stroke-width:5;stroke-miterlimit:10;}
	
		.st1{fill:url(#SVGID_00000130608516013229976440000008326982901412666264_);stroke:url(#SVGID_00000079469757259649155870000013334063919127542434_);stroke-width:5;stroke-miterlimit:10;}
	.st2{fill:url(#SVGID_00000059300953026717819480000003948108685196526261_);stroke:#333333;stroke-width:3;stroke-miterlimit:10;}
	.st3{fill:none;stroke:#333333;stroke-miterlimit:10;}
	.st4{fill:none;stroke:#1A1A1A;stroke-miterlimit:10;}
	.st5{fill:#939393;stroke:url(#SVGID_00000021812456568544147240000000560083524971766957_);stroke-width:5;stroke-miterlimit:10;}
	
		.st6{fill:url(#SVGID_00000160191097176053689760000010532327339159876758_);stroke:url(#SVGID_00000138538331987598110160000002231410769938564512_);stroke-width:5;stroke-miterlimit:10;}
	.st7{fill:#939393;stroke:url(#SVGID_00000077317148350438110160000018356603618153631652_);stroke-width:5;stroke-miterlimit:10;}
	.st8{fill:#939393;stroke:url(#SVGID_00000062903559726894521540000005390428724111762565_);stroke-width:5;stroke-miterlimit:10;}
	.st9{fill:#939393;stroke:url(#SVGID_00000157282029646897473470000016747713111900679048_);stroke-width:5;stroke-miterlimit:10;}
	.st10{fill:#939393;stroke:url(#SVGID_00000078725449625605053850000008563901397518994097_);stroke-width:5;stroke-miterlimit:10;}
	.st11{fill:#939393;stroke:url(#SVGID_00000139278524223675726260000009432033423396237959_);stroke-width:5;stroke-miterlimit:10;}
	.st12{fill:#939393;stroke:url(#SVGID_00000029761726927549533240000014592346637689850290_);stroke-width:5;stroke-miterlimit:10;}
	.st13{fill:#939393;stroke:url(#SVGID_00000129923278195991665640000013191175903935975603_);stroke-width:5;stroke-miterlimit:10;}
	.st14{fill:#CCCCCC;stroke:#666666;stroke-miterlimit:10;}
	.st15{fill:#939393;stroke:#666666;stroke-width:5;stroke-miterlimit:10;}
	.st16{fill:none;stroke:url(#SVGID_00000173131124645062084840000008831325706293501090_);stroke-miterlimit:10;}
	.st17{fill:#666666;}
	.st18{fill:none;stroke:#000000;stroke-miterlimit:10;}
	.st19{fill:none;stroke:url(#SVGID_00000124840410820059406790000010493543960854077848_);stroke-miterlimit:10;}
	.st20{fill:none;stroke:url(#SVGID_00000117674581508275529420000004975852580971900800_);stroke-miterlimit:10;}
	.st21{fill:none;stroke:url(#SVGID_00000103962817262581103430000000902905076355949243_);stroke-miterlimit:10;}
	.st22{fill:url(#SVGID_00000142158431796322935540000003443438115077842328_);}
	.st23{fill:url(#SVGID_00000074423210887348406030000000933667765241366419_);}
	.st24{fill:url(#SVGID_00000034062722766756149920000014847969741310769040_);}
	.st25{fill:url(#SVGID_00000157308461389272184680000001950952649694961335_);}
	.st26{fill:url(#SVGID_00000093170042231033850340000003613550983788624273_);}
	.st27{fill:url(#SVGID_00000072257567276083336390000000167428592785894831_);}
	.st28{fill:none;stroke:#333333;stroke-width:3;stroke-miterlimit:10;}
</style>
<g id="Drum8">
	<linearGradient id="SVGID_1_" gradientUnits="userSpaceOnUse" x1="438.0961" y1="393.1162" x2="440.5975" y2="393.1162">
		<stop  offset="0" style="stop-color:#FFFFFF"/>
		<stop  offset="0.5335" style="stop-color:#000000"/>
		<stop  offset="1" style="stop-color:#FFFFFF"/>
	</linearGradient>
	
		<linearGradient id="SVGID_00000176037516451188188090000004933255067240749446_" gradientUnits="userSpaceOnUse" x1="435.5962" y1="393.1162" x2="443.0974" y2="393.1162">
		<stop  offset="0" style="stop-color:#FFFFFF"/>
		<stop  offset="0.5335" style="stop-color:#000000"/>
		<stop  offset="1" style="stop-color:#FFFFFF"/>
	</linearGradient>
	
		<line style="fill:url(#SVGID_1_);stroke:url(#SVGID_00000176037516451188188090000004933255067240749446_);stroke-width:5;stroke-miterlimit:10;" x1="440.6" y1="269.23" x2="438.1" y2="517"/>
	
		<linearGradient id="SVGID_00000036251864470293046930000015375813417753116576_" gradientUnits="userSpaceOnUse" x1="669.9751" y1="392.1065" x2="673.5806" y2="392.1065">
		<stop  offset="0" style="stop-color:#FFFFFF"/>
		<stop  offset="0.5335" style="stop-color:#000000"/>
		<stop  offset="1" style="stop-color:#FFFFFF"/>
	</linearGradient>
	
		<linearGradient id="SVGID_00000146464596640035410150000012283165135526418304_" gradientUnits="userSpaceOnUse" x1="667.4754" y1="392.1065" x2="676.0803" y2="392.1065">
		<stop  offset="0" style="stop-color:#FFFFFF"/>
		<stop  offset="0.5335" style="stop-color:#000000"/>
		<stop  offset="1" style="stop-color:#FFFFFF"/>
	</linearGradient>
	
		<line style="fill:url(#SVGID_00000036251864470293046930000015375813417753116576_);stroke:url(#SVGID_00000146464596640035410150000012283165135526418304_);stroke-width:5;stroke-miterlimit:10;" x1="673.58" y1="272.21" x2="669.98" y2="512"/>
	
		<linearGradient id="SVGID_00000003792590705524147240000011298459604522068357_" gradientUnits="userSpaceOnUse" x1="438" y1="394" x2="674" y2="394">
		<stop  offset="0" style="stop-color:#FFFFFF"/>
		<stop  offset="0.5335" style="stop-color:#000000"/>
		<stop  offset="1" style="stop-color:#FFFFFF"/>
	</linearGradient>
	
		<path style="fill:url(#SVGID_00000003792590705524147240000011298459604522068357_);stroke:#333333;stroke-width:3;stroke-miterlimit:10;" d="
		M661.53,529c0,0-19.53,8.5-105.03,8.5S450.47,529,450.47,529c-6.89,0-12.47-5.58-12.47-12.47v-7.84c0-4.72,2.66-9.03,6.88-11.13
		L450,495V289c-7.05-1.76-12-8.1-12-15.37v-2.16c0-6.89,5.58-12.47,12.47-12.47c0,0,28.03-8.5,106.03-8.5s105.03,8.5,105.03,8.5
		c6.89,0,12.47,5.58,12.47,12.47v6.62c0,6.88-4.97,12.74-11.75,13.87L662,292v204l3.78,1.57c4.98,2.07,8.22,6.94,8.22,12.33v6.62
		C674,523.42,668.42,529,661.53,529z"/>
	<path class="st3" d="M450.5,289.5c34-7,74.24-12.17,109-12c32.24,0.16,72,7,103,14"/>
	<path class="st4" d="M662.2,495.13c-34,7-74.24,12.17-109,12c-32.24-0.16-72-7-103-14"/>
	
		<linearGradient id="SVGID_00000032641704166546442620000003402425579867918250_" gradientUnits="userSpaceOnUse" x1="550.4357" y1="393.5349" x2="558.9998" y2="393.5349">
		<stop  offset="0" style="stop-color:#FFFFFF"/>
		<stop  offset="0.5335" style="stop-color:#000000"/>
		<stop  offset="1" style="stop-color:#FFFFFF"/>
	</linearGradient>
	
		<line style="fill:#939393;stroke:url(#SVGID_00000032641704166546442620000003402425579867918250_);stroke-width:5;stroke-miterlimit:10;" x1="556.5" y1="250.5" x2="552.94" y2="536.57"/>
	
		<linearGradient id="SVGID_00000094613133516156716860000010477602662617107376_" gradientUnits="userSpaceOnUse" x1="485.2567" y1="393.9348" x2="490" y2="393.9348">
		<stop  offset="0" style="stop-color:#FFFFFF"/>
		<stop  offset="0.5335" style="stop-color:#000000"/>
		<stop  offset="1" style="stop-color:#FFFFFF"/>
	</linearGradient>
	
		<linearGradient id="SVGID_00000104674809860491255550000002965978758269560203_" gradientUnits="userSpaceOnUse" x1="482.757" y1="393.9348" x2="492.4996" y2="393.9348">
		<stop  offset="0" style="stop-color:#FFFFFF"/>
		<stop  offset="0.5335" style="stop-color:#000000"/>
		<stop  offset="1" style="stop-color:#FFFFFF"/>
	</linearGradient>
	
		<line style="fill:url(#SVGID_00000094613133516156716860000010477602662617107376_);stroke:url(#SVGID_00000104674809860491255550000002965978758269560203_);stroke-width:5;stroke-miterlimit:10;" x1="490" y1="253.07" x2="485.26" y2="534.8"/>
	
		<linearGradient id="SVGID_00000134942624957837289200000017053930234480717447_" gradientUnits="userSpaceOnUse" x1="618.7791" y1="393.9348" x2="623.7791" y2="393.9348">
		<stop  offset="0" style="stop-color:#FFFFFF"/>
		<stop  offset="0.5335" style="stop-color:#000000"/>
		<stop  offset="1" style="stop-color:#FFFFFF"/>
	</linearGradient>
	
		<line style="fill:#939393;stroke:url(#SVGID_00000134942624957837289200000017053930234480717447_);stroke-width:5;stroke-miterlimit:10;" x1="621.28" y1="253.07" x2="621.28" y2="534.8"/>
	
		<linearGradient id="SVGID_00000052805615192859318420000009781687411579182733_" gradientUnits="userSpaceOnUse" x1="543.9316" y1="259.2448" x2="567.9471" y2="259.2448">
		<stop  offset="0" style="stop-color:#FFFFFF"/>
		<stop  offset="0.5335" style="stop-color:#000000"/>
		<stop  offset="1" style="stop-color:#FFFFFF"/>
	</linearGradient>
	
		<polyline style="fill:#939393;stroke:url(#SVGID_00000052805615192859318420000009781687411579182733_);stroke-width:5;stroke-miterlimit:10;" points="
		565.85,250.54 556.5,265 545.95,250.55 	"/>
	
		<linearGradient id="SVGID_00000041282658273737625700000003474628436713272211_" gradientUnits="userSpaceOnUse" x1="606.0377" y1="261.2683" x2="636.6252" y2="261.2683">
		<stop  offset="0" style="stop-color:#FFFFFF"/>
		<stop  offset="0.5335" style="stop-color:#000000"/>
		<stop  offset="1" style="stop-color:#FFFFFF"/>
	</linearGradient>
	
		<polyline style="fill:#939393;stroke:url(#SVGID_00000041282658273737625700000003474628436713272211_);stroke-width:5;stroke-miterlimit:10;" points="
		634.88,254.33 621.28,267.58 607.87,253.07 	"/>
	
		<linearGradient id="SVGID_00000014612969318511255910000005131808158123431834_" gradientUnits="userSpaceOnUse" x1="475.1722" y1="261.4699" x2="503.0247" y2="261.4699">
		<stop  offset="0" style="stop-color:#FFFFFF"/>
		<stop  offset="0.5335" style="stop-color:#000000"/>
		<stop  offset="1" style="stop-color:#FFFFFF"/>
	</linearGradient>
	
		<polyline style="fill:#939393;stroke:url(#SVGID_00000014612969318511255910000005131808158123431834_);stroke-width:5;stroke-miterlimit:10;" points="
		501.03,253.07 490,267.58 476.95,254.42 	"/>
	
		<linearGradient id="SVGID_00000094613945706934135890000010873681841298609797_" gradientUnits="userSpaceOnUse" x1="468.3648" y1="524.9809" x2="498.2658" y2="524.9809">
		<stop  offset="0" style="stop-color:#FFFFFF"/>
		<stop  offset="0.5335" style="stop-color:#000000"/>
		<stop  offset="1" style="stop-color:#FFFFFF"/>
	</linearGradient>
	
		<polyline style="fill:#939393;stroke:url(#SVGID_00000094613945706934135890000010873681841298609797_);stroke-width:5;stroke-miterlimit:10;" points="
		470.14,533.07 485.26,517.79 496.16,534.8 	"/>
	
		<linearGradient id="SVGID_00000151526574826395854660000014096391080957449346_" gradientUnits="userSpaceOnUse" x1="535.7244" y1="526.9473" x2="565.7186" y2="526.9473">
		<stop  offset="0" style="stop-color:#FFFFFF"/>
		<stop  offset="0.5335" style="stop-color:#000000"/>
		<stop  offset="1" style="stop-color:#FFFFFF"/>
	</linearGradient>
	
		<polyline style="fill:#939393;stroke:url(#SVGID_00000151526574826395854660000014096391080957449346_);stroke-width:5;stroke-miterlimit:10;" points="
		537.64,537.5 553.15,519.08 563.57,536.57 	"/>
	
		<linearGradient id="SVGID_00000101068034118390431810000013168311977639945602_" gradientUnits="userSpaceOnUse" x1="609.0573" y1="525.1225" x2="632.4583" y2="525.1225">
		<stop  offset="0" style="stop-color:#FFFFFF"/>
		<stop  offset="0.5335" style="stop-color:#000000"/>
		<stop  offset="1" style="stop-color:#FFFFFF"/>
	</linearGradient>
	
		<polyline style="fill:#939393;stroke:url(#SVGID_00000101068034118390431810000013168311977639945602_);stroke-width:5;stroke-miterlimit:10;" points="
		611.26,536.57 621.38,517.79 630.25,534.52 	"/>
	<circle class="st14" cx="556" cy="309" r="8.5"/>
	<circle class="st14" cx="554" cy="477" r="8.5"/>
	<circle class="st14" cx="621" cy="314" r="8.5"/>
	<circle class="st14" cx="489" cy="317" r="8.5"/>
	<circle class="st14" cx="621" cy="468" r="8.5"/>
	<circle class="st14" cx="485" cy="467" r="8.5"/>
</g>
<g id="Drum7">
	<circle class="st15" cx="732.37" cy="563.8" r="129.98"/>
	
		<radialGradient id="SVGID_00000118364798293225528010000006827712429678220935_" cx="717.6364" cy="677.3351" r="107.8785" gradientTransform="matrix(0.8793 -0.4762 0.4762 0.8793 -220.2607 310.1994)" gradientUnits="userSpaceOnUse">
		<stop  offset="0" style="stop-color:#FFFFFF"/>
		<stop  offset="1" style="stop-color:#000000"/>
	</radialGradient>
	
		<circle style="fill:none;stroke:url(#SVGID_00000118364798293225528010000006827712429678220935_);stroke-miterlimit:10;" cx="733.33" cy="564.09" r="107.38"/>
	<path class="st17" d="M795.89,679.63c-8.1,4.39-16.46,7.82-24.95,10.34l14.13,11.22c0.15,0.28,1.51,1.15,2.35,0.7l31.74-17.19
		c0.84-0.46,0.85-2.07,0.7-2.35l-1.67-17.97C811.43,670.12,803.99,675.24,795.89,679.63z"/>
	<path class="st17" d="M668.93,447.12c8.1-4.39,16.46-7.82,24.95-10.34l-14.13-11.22c-0.15-0.28-1.51-1.15-2.35-0.7l-31.74,17.19
		c-0.84,0.46-0.85,2.07-0.7,2.35l1.67,17.97C653.39,456.63,660.83,451.51,668.93,447.12z"/>
	<path class="st17" d="M616.04,627.88c-4.39-8.1-7.82-16.46-10.34-24.95l-11.22,14.13c-0.28,0.15-1.15,1.51-0.7,2.35l17.19,31.74
		c0.46,0.84,2.07,0.85,2.35,0.7l17.97-1.67C625.55,643.42,620.42,635.98,616.04,627.88z"/>
	<path class="st17" d="M849.61,501.4c4.39,8.1,7.82,16.46,10.34,24.95l11.22-14.13c0.28-0.15,1.15-1.51,0.7-2.35l-17.19-31.74
		c-0.46-0.84-2.07-0.85-2.35-0.7l-17.97,1.67C840.1,485.86,845.22,493.3,849.61,501.4z"/>
	<circle class="st18" cx="732.65" cy="562.84" r="132.81"/>
	<circle cx="609.56" cy="631.51" r="3.18"/>
	<circle cx="856.46" cy="498.26" r="3.18"/>
	<circle cx="664.39" cy="439.32" r="3.18"/>
	<circle cx="799.42" cy="686.87" r="3.18"/>
</g>
<g id="Drum6">
	<circle class="st15" cx="386.59" cy="540.8" r="97.99"/>
	
		<radialGradient id="SVGID_00000009549900581332283560000015016526671718493096_" cx="424.3582" cy="492.2868" r="81.4479" gradientTransform="matrix(0.8793 -0.4762 0.4762 0.8793 -220.2607 310.1994)" gradientUnits="userSpaceOnUse">
		<stop  offset="0" style="stop-color:#FFFFFF"/>
		<stop  offset="1" style="stop-color:#000000"/>
	</radialGradient>
	
		<circle style="fill:none;stroke:url(#SVGID_00000009549900581332283560000015016526671718493096_);stroke-miterlimit:10;" cx="387.32" cy="541.02" r="80.95"/>
	<path class="st17" d="M434.48,628.12c-6.11,3.31-12.41,5.89-18.81,7.8l10.65,8.46c0.11,0.21,1.14,0.87,1.77,0.53l23.93-12.96
		c0.63-0.34,0.64-1.56,0.53-1.77l-1.26-13.54C446.2,620.95,440.59,624.81,434.48,628.12z"/>
	<path class="st17" d="M338.77,452.84c6.11-3.31,12.41-5.89,18.81-7.8l-10.65-8.46c-0.11-0.21-1.14-0.87-1.77-0.53l-23.93,12.96
		c-0.63,0.34-0.64,1.56-0.53,1.77l1.26,13.54C327.05,460.02,332.66,456.15,338.77,452.84z"/>
	<path class="st17" d="M298.9,589.11c-3.31-6.11-5.89-12.41-7.8-18.81l-8.46,10.65c-0.21,0.11-0.87,1.14-0.53,1.77l12.96,23.93
		c0.34,0.63,1.56,0.64,1.77,0.53l13.54-1.26C306.07,600.83,302.2,595.22,298.9,589.11z"/>
	<path class="st17" d="M474.98,493.76c3.31,6.11,5.89,12.41,7.8,18.81l8.46-10.65c0.21-0.11,0.87-1.14,0.53-1.77l-12.96-23.93
		c-0.34-0.63-1.56-0.64-1.77-0.53l-13.54,1.26C467.81,482.05,471.67,487.66,474.98,493.76z"/>
	<circle class="st18" cx="386.81" cy="540.08" r="100.12"/>
	<circle cx="294.02" cy="591.84" r="2.4"/>
	<circle cx="480.14" cy="491.4" r="2.4"/>
	<circle cx="335.35" cy="446.96" r="2.4"/>
	<circle cx="437.14" cy="633.58" r="2.4"/>
</g>
<g id="Drum5">
	<circle class="st15" cx="473.88" cy="400.42" r="72.02"/>
	
		<radialGradient id="SVGID_00000045614156871339774930000009120459536648338580_" cx="567.8215" cy="410.2678" r="59.9914" gradientTransform="matrix(0.8793 -0.4762 0.4762 0.8793 -220.2607 310.1994)" gradientUnits="userSpaceOnUse">
		<stop  offset="0" style="stop-color:#FFFFFF"/>
		<stop  offset="1" style="stop-color:#000000"/>
	</radialGradient>
	
		<circle style="fill:none;stroke:url(#SVGID_00000045614156871339774930000009120459536648338580_);stroke-miterlimit:10;" cx="474.41" cy="400.58" r="59.49"/>
	<path class="st17" d="M509.08,464.6c-4.49,2.43-9.12,4.33-13.82,5.73l7.83,6.22c0.08,0.16,0.83,0.64,1.3,0.39l17.59-9.52
		c0.47-0.25,0.47-1.15,0.39-1.3l-0.93-9.95C517.69,459.33,513.57,462.17,509.08,464.6z"/>
	<path class="st17" d="M438.73,335.78c4.49-2.43,9.12-4.33,13.82-5.73l-7.83-6.22c-0.08-0.16-0.83-0.64-1.3-0.39l-17.59,9.52
		c-0.47,0.25-0.47,1.15-0.39,1.3l0.93,9.95C430.12,341.05,434.25,338.21,438.73,335.78z"/>
	<path class="st17" d="M409.43,435.93c-2.43-4.49-4.33-9.12-5.73-13.82l-6.22,7.83c-0.16,0.08-0.64,0.83-0.39,1.3l9.52,17.59
		c0.25,0.47,1.15,0.47,1.3,0.39l9.95-0.93C414.7,444.54,411.86,440.41,409.43,435.93z"/>
	<path class="st17" d="M538.84,365.85c2.43,4.49,4.33,9.12,5.73,13.82l6.22-7.83c0.16-0.08,0.64-0.83,0.39-1.3l-9.52-17.59
		c-0.25-0.47-1.15-0.47-1.3-0.39l-9.95,0.93C533.57,357.24,536.41,361.36,538.84,365.85z"/>
	<circle class="st18" cx="474.04" cy="399.89" r="73.58"/>
	<circle cx="405.85" cy="437.93" r="1.76"/>
	<circle cx="542.64" cy="364.11" r="1.76"/>
	<circle cx="436.22" cy="331.45" r="1.76"/>
	<circle cx="511.03" cy="468.6" r="1.76"/>
</g>
<g id="Drum4">
	<circle class="st15" cx="645.12" cy="406.97" r="92"/>
	
		<radialGradient id="SVGID_00000093172382203128238070000000282295552781058468_" cx="715.388" cy="497.6738" r="76.5" gradientTransform="matrix(0.8793 -0.4762 0.4762 0.8793 -220.2607 310.1994)" gradientUnits="userSpaceOnUse">
		<stop  offset="0" style="stop-color:#FFFFFF"/>
		<stop  offset="1" style="stop-color:#000000"/>
	</radialGradient>
	
		<circle style="fill:none;stroke:url(#SVGID_00000093172382203128238070000000282295552781058468_);stroke-miterlimit:10;" cx="645.8" cy="407.17" r="76"/>
	<path class="st17" d="M690.08,488.95c-5.73,3.1-11.65,5.53-17.66,7.32l10,7.94c0.11,0.2,1.07,0.82,1.66,0.49l22.47-12.17
		c0.6-0.32,0.6-1.46,0.49-1.66l-1.19-12.72C701.08,482.22,695.81,485.85,690.08,488.95z"/>
	<path class="st17" d="M600.22,324.39c5.73-3.1,11.65-5.53,17.66-7.32l-10-7.94c-0.11-0.2-1.07-0.82-1.66-0.49l-22.47,12.17
		c-0.6,0.32-0.6,1.46-0.49,1.66l1.19,12.72C589.22,331.12,594.48,327.49,600.22,324.39z"/>
	<path class="st17" d="M562.78,452.33c-3.1-5.73-5.53-11.65-7.32-17.66l-7.94,10c-0.2,0.11-0.82,1.07-0.49,1.66l12.17,22.47
		c0.32,0.6,1.46,0.6,1.66,0.49l12.72-1.19C569.52,463.33,565.89,458.06,562.78,452.33z"/>
	<path class="st17" d="M728.1,362.8c3.1,5.73,5.53,11.65,7.32,17.66l7.94-10c0.2-0.11,0.82-1.07,0.49-1.66l-12.17-22.47
		c-0.32-0.6-1.46-0.6-1.66-0.49l-12.72,1.19C721.37,351.81,725,357.07,728.1,362.8z"/>
	<circle class="st18" cx="645.32" cy="406.29" r="94"/>
	<circle cx="558.2" cy="454.89" r="2.25"/>
	<circle cx="732.95" cy="360.58" r="2.25"/>
	<circle cx="597" cy="318.86" r="2.25"/>
	<circle cx="692.58" cy="494.07" r="2.25"/>
</g>
<g id="Drum3">
	<g>
		
			<radialGradient id="SVGID_00000020380292587169089890000002944548368162969492_" cx="268" cy="527" r="60" gradientUnits="userSpaceOnUse">
			<stop  offset="0" style="stop-color:#FFFFFF"/>
			<stop  offset="1" style="stop-color:#000000"/>
		</radialGradient>
		<circle style="fill:url(#SVGID_00000020380292587169089890000002944548368162969492_);" cx="268" cy="527" r="60"/>
	</g>
	<g>
		
			<radialGradient id="SVGID_00000169560162904927273040000015926209465593474993_" cx="268" cy="527" r="25.3731" gradientUnits="userSpaceOnUse">
			<stop  offset="0" style="stop-color:#FFFFFF"/>
			<stop  offset="0.8994" style="stop-color:#000000"/>
			<stop  offset="1" style="stop-color:#818181"/>
		</radialGradient>
		<circle style="fill:url(#SVGID_00000169560162904927273040000015926209465593474993_);" cx="268" cy="527" r="25.37"/>
	</g>
</g>
<g id="Drum2">
	<g>
		
			<radialGradient id="SVGID_00000127026432848224609080000000886137163675425699_" cx="339.5" cy="382.5" r="100.5" gradientUnits="userSpaceOnUse">
			<stop  offset="0" style="stop-color:#FFFFFF"/>
			<stop  offset="1" style="stop-color:#000000"/>
		</radialGradient>
		<circle style="fill:url(#SVGID_00000127026432848224609080000000886137163675425699_);" cx="339.5" cy="382.5" r="100.5"/>
	</g>
	<g>
		
			<radialGradient id="SVGID_00000176750105689769310770000006161681323347014032_" cx="339.5" cy="382.5" r="42.5" gradientUnits="userSpaceOnUse">
			<stop  offset="0" style="stop-color:#FFFFFF"/>
			<stop  offset="0.8994" style="stop-color:#000000"/>
			<stop  offset="1" style="stop-color:#818181"/>
		</radialGradient>
		<circle style="fill:url(#SVGID_00000176750105689769310770000006161681323347014032_);" cx="339.5" cy="382.5" r="42.5"/>
	</g>
</g>
<g id="Drum1">
	<g>
		
			<radialGradient id="SVGID_00000062872672889087984200000008580244339457360770_" cx="793.5" cy="335.5" r="100.5" gradientUnits="userSpaceOnUse">
			<stop  offset="0" style="stop-color:#FFFFFF"/>
			<stop  offset="1" style="stop-color:#000000"/>
		</radialGradient>
		<circle style="fill:url(#SVGID_00000062872672889087984200000008580244339457360770_);" cx="793.5" cy="335.5" r="100.5"/>
	</g>
	<g>
		
			<radialGradient id="SVGID_00000018915167156517580960000007178461201584771498_" cx="793.5" cy="335.5" r="42.5" gradientUnits="userSpaceOnUse">
			<stop  offset="0" style="stop-color:#FFFFFF"/>
			<stop  offset="0.8994" style="stop-color:#000000"/>
			<stop  offset="1" style="stop-color:#818181"/>
		</radialGradient>
		<circle style="fill:url(#SVGID_00000018915167156517580960000007178461201584771498_);" cx="793.5" cy="335.5" r="42.5"/>
	</g>
</g>

</svg>
