<?xml version="1.0" encoding="utf-8"?>
<!-- Generator: Adobe Illustrator 26.5.0, SVG Export Plug-In . SVG Version: 6.00 Build 0)  -->
<svg  xmlns="http://www.w3.org/2000/svg" xmlns:xlink="http://www.w3.org/1999/xlink" x="0px" y="0px"
	 viewBox="0 0 1000 800"  xml:space="preserve">

<g id="Drum7">
	<circle class="st0" cx="732.37" cy="563.8" r="129.98"/>
	
		<radialGradient id="SVGID_1_" cx="717.6364" cy="677.3351" r="107.8785" gradientTransform="matrix(0.8793 -0.4762 0.4762 0.8793 -220.2607 310.1994)" gradientUnits="userSpaceOnUse">
		<stop  offset="0" style="stop-color:#FFFFFF"/>
		<stop  offset="1" style="stop-color:#000000"/>
	</radialGradient>
	<circle class="st1" cx="733.33" cy="564.09" r="107.38"/>
	<path class="st2" d="M795.89,679.63c-8.1,4.39-16.46,7.82-24.95,10.34l14.13,11.22c0.15,0.28,1.51,1.15,2.35,0.7l31.74-17.19
		c0.84-0.46,0.85-2.07,0.7-2.35l-1.67-17.97C811.43,670.12,803.99,675.24,795.89,679.63z"/>
	<path class="st2" d="M668.93,447.12c8.1-4.39,16.46-7.82,24.95-10.34l-14.13-11.22c-0.15-0.28-1.51-1.15-2.35-0.7l-31.74,17.19
		c-0.84,0.46-0.85,2.07-0.7,2.35l1.67,17.97C653.39,456.63,660.83,451.51,668.93,447.12z"/>
	<path class="st2" d="M616.04,627.88c-4.39-8.1-7.82-16.46-10.34-24.95l-11.22,14.13c-0.28,0.15-1.15,1.51-0.7,2.35l17.19,31.74
		c0.46,0.84,2.07,0.85,2.35,0.7l17.97-1.67C625.55,643.42,620.42,635.98,616.04,627.88z"/>
	<path class="st2" d="M849.61,501.4c4.39,8.1,7.82,16.46,10.34,24.95l11.22-14.13c0.28-0.15,1.15-1.51,0.7-2.35l-17.19-31.74
		c-0.46-0.84-2.07-0.85-2.35-0.7l-17.97,1.67C840.1,485.86,845.22,493.3,849.61,501.4z"/>
	<circle class="st3" cx="732.65" cy="562.84" r="132.81"/>
	<circle cx="609.56" cy="631.51" r="3.18"/>
	<circle cx="856.46" cy="498.26" r="3.18"/>
	<circle cx="664.39" cy="439.32" r="3.18"/>
	<circle cx="799.42" cy="686.87" r="3.18"/>
</g>
<g id="Drum6">
	<circle class="st0" cx="386.59" cy="540.8" r="97.99"/>
	
		<radialGradient id="SVGID_00000062170345246412049170000013887636181864364182_" cx="424.3582" cy="492.2868" r="81.4479" gradientTransform="matrix(0.8793 -0.4762 0.4762 0.8793 -220.2607 310.1994)" gradientUnits="userSpaceOnUse">
		<stop  offset="0" style="stop-color:#FFFFFF"/>
		<stop  offset="1" style="stop-color:#000000"/>
	</radialGradient>
	
		<circle style="fill:none;stroke:url(#SVGID_00000062170345246412049170000013887636181864364182_);stroke-miterlimit:10;" cx="387.32" cy="541.02" r="80.95"/>
	<path class="st2" d="M434.48,628.12c-6.11,3.31-12.41,5.89-18.81,7.8l10.65,8.46c0.11,0.21,1.14,0.87,1.77,0.53l23.93-12.96
		c0.63-0.34,0.64-1.56,0.53-1.77l-1.26-13.54C446.2,620.95,440.59,624.81,434.48,628.12z"/>
	<path class="st2" d="M338.77,452.84c6.11-3.31,12.41-5.89,18.81-7.8l-10.65-8.46c-0.11-0.21-1.14-0.87-1.77-0.53l-23.93,12.96
		c-0.63,0.34-0.64,1.56-0.53,1.77l1.26,13.54C327.05,460.02,332.66,456.15,338.77,452.84z"/>
	<path class="st2" d="M298.9,589.11c-3.31-6.11-5.89-12.41-7.8-18.81l-8.46,10.65c-0.21,0.11-0.87,1.14-0.53,1.77l12.96,23.93
		c0.34,0.63,1.56,0.64,1.77,0.53l13.54-1.26C306.07,600.83,302.2,595.22,298.9,589.11z"/>
	<path class="st2" d="M474.98,493.76c3.31,6.11,5.89,12.41,7.8,18.81l8.46-10.65c0.21-0.11,0.87-1.14,0.53-1.77l-12.96-23.93
		c-0.34-0.63-1.56-0.64-1.77-0.53l-13.54,1.26C467.81,482.05,471.67,487.66,474.98,493.76z"/>
	<circle class="st3" cx="386.81" cy="540.08" r="100.12"/>
	<circle cx="294.02" cy="591.84" r="2.4"/>
	<circle cx="480.14" cy="491.4" r="2.4"/>
	<circle cx="335.35" cy="446.96" r="2.4"/>
	<circle cx="437.14" cy="633.58" r="2.4"/>
</g>
<g id="Drum5">
	<circle class="st0" cx="473.88" cy="400.42" r="72.02"/>
	
		<radialGradient id="SVGID_00000150814238133092931650000000061364487421071039_" cx="567.8215" cy="410.2678" r="59.9914" gradientTransform="matrix(0.8793 -0.4762 0.4762 0.8793 -220.2607 310.1994)" gradientUnits="userSpaceOnUse">
		<stop  offset="0" style="stop-color:#FFFFFF"/>
		<stop  offset="1" style="stop-color:#000000"/>
	</radialGradient>
	
		<circle style="fill:none;stroke:url(#SVGID_00000150814238133092931650000000061364487421071039_);stroke-miterlimit:10;" cx="474.41" cy="400.58" r="59.49"/>
	<path class="st2" d="M509.08,464.6c-4.49,2.43-9.12,4.33-13.82,5.73l7.83,6.22c0.08,0.16,0.83,0.64,1.3,0.39l17.59-9.52
		c0.47-0.25,0.47-1.15,0.39-1.3l-0.93-9.95C517.69,459.33,513.57,462.17,509.08,464.6z"/>
	<path class="st2" d="M438.73,335.78c4.49-2.43,9.12-4.33,13.82-5.73l-7.83-6.22c-0.08-0.16-0.83-0.64-1.3-0.39l-17.59,9.52
		c-0.47,0.25-0.47,1.15-0.39,1.3l0.93,9.95C430.12,341.05,434.25,338.21,438.73,335.78z"/>
	<path class="st2" d="M409.43,435.93c-2.43-4.49-4.33-9.12-5.73-13.82l-6.22,7.83c-0.16,0.08-0.64,0.83-0.39,1.3l9.52,17.59
		c0.25,0.47,1.15,0.47,1.3,0.39l9.95-0.93C414.7,444.54,411.86,440.41,409.43,435.93z"/>
	<path class="st2" d="M538.84,365.85c2.43,4.49,4.33,9.12,5.73,13.82l6.22-7.83c0.16-0.08,0.64-0.83,0.39-1.3l-9.52-17.59
		c-0.25-0.47-1.15-0.47-1.3-0.39l-9.95,0.93C533.57,357.24,536.41,361.36,538.84,365.85z"/>
	<circle class="st3" cx="474.04" cy="399.89" r="73.58"/>
	<circle cx="405.85" cy="437.93" r="1.76"/>
	<circle cx="542.64" cy="364.11" r="1.76"/>
	<circle cx="436.22" cy="331.45" r="1.76"/>
	<circle cx="511.03" cy="468.6" r="1.76"/>
</g>
<g id="Drum4">
	<circle class="st0" cx="645.12" cy="406.97" r="92"/>
	
		<radialGradient id="SVGID_00000121963906919889599470000009313687002965838729_" cx="715.388" cy="497.6738" r="76.5" gradientTransform="matrix(0.8793 -0.4762 0.4762 0.8793 -220.2607 310.1994)" gradientUnits="userSpaceOnUse">
		<stop  offset="0" style="stop-color:#FFFFFF"/>
		<stop  offset="1" style="stop-color:#000000"/>
	</radialGradient>
	
		<circle style="fill:none;stroke:url(#SVGID_00000121963906919889599470000009313687002965838729_);stroke-miterlimit:10;" cx="645.8" cy="407.17" r="76"/>
	<path class="st2" d="M690.08,488.95c-5.73,3.1-11.65,5.53-17.66,7.32l10,7.94c0.11,0.2,1.07,0.82,1.66,0.49l22.47-12.17
		c0.6-0.32,0.6-1.46,0.49-1.66l-1.19-12.72C701.08,482.22,695.81,485.85,690.08,488.95z"/>
	<path class="st2" d="M600.22,324.39c5.73-3.1,11.65-5.53,17.66-7.32l-10-7.94c-0.11-0.2-1.07-0.82-1.66-0.49l-22.47,12.17
		c-0.6,0.32-0.6,1.46-0.49,1.66l1.19,12.72C589.22,331.12,594.48,327.49,600.22,324.39z"/>
	<path class="st2" d="M562.78,452.33c-3.1-5.73-5.53-11.65-7.32-17.66l-7.94,10c-0.2,0.11-0.82,1.07-0.49,1.66l12.17,22.47
		c0.32,0.6,1.46,0.6,1.66,0.49l12.72-1.19C569.52,463.33,565.89,458.06,562.78,452.33z"/>
	<path class="st2" d="M728.1,362.8c3.1,5.73,5.53,11.65,7.32,17.66l7.94-10c0.2-0.11,0.82-1.07,0.49-1.66l-12.17-22.47
		c-0.32-0.6-1.46-0.6-1.66-0.49l-12.72,1.19C721.37,351.81,725,357.07,728.1,362.8z"/>
	<circle class="st3" cx="645.32" cy="406.29" r="94"/>
	<circle cx="558.2" cy="454.89" r="2.25"/>
	<circle cx="732.95" cy="360.58" r="2.25"/>
	<circle cx="597" cy="318.86" r="2.25"/>
	<circle cx="692.58" cy="494.07" r="2.25"/>
</g>
<g id="Drum3">
	<g>
		
			<radialGradient id="SVGID_00000099631598069534177460000004499465027165024136_" cx="268" cy="527" r="60" gradientUnits="userSpaceOnUse">
			<stop  offset="0" style="stop-color:#FFFFFF"/>
			<stop  offset="1" style="stop-color:#000000"/>
		</radialGradient>
		<circle style="fill:url(#SVGID_00000099631598069534177460000004499465027165024136_);" cx="268" cy="527" r="60"/>
	</g>
	<g>
		
			<radialGradient id="SVGID_00000008848309196500541340000010715778498924923298_" cx="268" cy="527" r="25.3731" gradientUnits="userSpaceOnUse">
			<stop  offset="0" style="stop-color:#FFFFFF"/>
			<stop  offset="0.8994" style="stop-color:#000000"/>
			<stop  offset="1" style="stop-color:#818181"/>
		</radialGradient>
		<circle style="fill:url(#SVGID_00000008848309196500541340000010715778498924923298_);" cx="268" cy="527" r="25.37"/>
	</g>
</g>
<g id="Drum2">
	<g>
		
			<radialGradient id="SVGID_00000127011206143247475830000009259432075673609886_" cx="339.5" cy="382.5" r="100.5" gradientUnits="userSpaceOnUse">
			<stop  offset="0" style="stop-color:#FFFFFF"/>
			<stop  offset="1" style="stop-color:#000000"/>
		</radialGradient>
		<circle style="fill:url(#SVGID_00000127011206143247475830000009259432075673609886_);" cx="339.5" cy="382.5" r="100.5"/>
	</g>
	<g>
		
			<radialGradient id="SVGID_00000018938021393894127500000012005008840738617494_" cx="339.5" cy="382.5" r="42.5" gradientUnits="userSpaceOnUse">
			<stop  offset="0" style="stop-color:#FFFFFF"/>
			<stop  offset="0.8994" style="stop-color:#000000"/>
			<stop  offset="1" style="stop-color:#818181"/>
		</radialGradient>
		<circle style="fill:url(#SVGID_00000018938021393894127500000012005008840738617494_);" cx="339.5" cy="382.5" r="42.5"/>
	</g>
</g>
<g id="Drum1">
	<g>
		
			<radialGradient id="SVGID_00000176724680432009977650000003333454107984315315_" cx="793.5" cy="335.5" r="100.5" gradientUnits="userSpaceOnUse">
			<stop  offset="0" style="stop-color:#FFFFFF"/>
			<stop  offset="1" style="stop-color:#000000"/>
		</radialGradient>
		<circle style="fill:url(#SVGID_00000176724680432009977650000003333454107984315315_);" cx="793.5" cy="335.5" r="100.5"/>
	</g>
	<g>
		
			<radialGradient id="SVGID_00000150801297338593500000000004772618613869625762_" cx="793.5" cy="335.5" r="42.5" gradientUnits="userSpaceOnUse">
			<stop  offset="0" style="stop-color:#FFFFFF"/>
			<stop  offset="0.8994" style="stop-color:#000000"/>
			<stop  offset="1" style="stop-color:#818181"/>
		</radialGradient>
		<circle style="fill:url(#SVGID_00000150801297338593500000000004772618613869625762_);" cx="793.5" cy="335.5" r="42.5"/>
	</g>
</g>
</svg>
