<?xml version="1.0" encoding="utf-8"?>
<!-- Generator: Adobe Illustrator 26.5.0, SVG Export Plug-In . SVG Version: 6.00 Build 0)  -->
<svg version="1.1" id="Layer_1" xmlns="http://www.w3.org/2000/svg" xmlns:xlink="http://www.w3.org/1999/xlink" x="0px" y="0px"
	 viewBox="0 0 1025 186" style="enable-background:new 0 0 1025 186;" xml:space="preserve">
<style type="text/css">
	.st0{opacity:0.13;}
	.st1{stroke:#000000;stroke-width:0.25;stroke-miterlimit:10;}
</style>
<polygon class="st0" points="298.2,84.94 114.75,84.94 114.75,92.01 297.33,92.01 "/>
<polygon class="st0" points="780.53,84.99 773.47,90.31 774.36,92.07 909.94,92.07 909.94,84.99 "/>
<g class="st0">
	<path class="st1" d="M370.62,69.77c12.19,4.19,19.36,12.28,17.85,24.59c-1.8,14.62-17.12,24.77-34.17,24.77h-52.11l11.63-94.75
		h48.05c17.87,0,29.89,10.15,28.26,23.42C388.88,57.86,381.88,65.34,370.62,69.77z M335,74.46l-4.49,36.55h12.59
		c9.34,0,16.2-6.23,17.54-17.19c2.38-19.36-11.97-19.36-15.08-19.36H335z M340.15,32.5L336,66.34h6.5c10.42,0,18.06-4.87,19.62-17.6
		c1.26-10.29-4.1-16.24-13.44-16.24H340.15z"/>
	<path class="st1" d="M404.4,58.52l17.81-2.6l-7.76,63.21h-17.49L404.4,58.52z"/>
	<path class="st1" d="M478.09,75.4l-5.37,43.73h-17.49l0.71-5.8c-3.5,4.06-8.66,6.67-13.98,6.67c-10.39,0-16.99-9.7-15.42-22.51
		c1.57-12.82,10.47-22.51,20.77-22.51c5.48,0,10.16,2.8,12.48,6.99l0.49-3.96L478.09,75.4z M456.69,107.25l2.36-19.26
		c-1.09-2.86-3.27-4.63-5.84-4.63c-4.24,0-7.79,5.63-8.83,14.11c-1.05,8.57,1.2,14.2,5.62,14.2
		C452.43,111.68,454.85,110.02,456.69,107.25z"/>
	<path class="st1" d="M528.37,87.61c-0.51,4.16-4.02,7.36-8.09,7.36c-4.42,0-7.31-3.2-6.8-7.36c0.31-2.54,1.81-4.73,3.94-6.04
		c-0.17-0.01-0.34-0.02-0.52-0.02c-7.79,0-13.01,5.8-14.25,15.93c-1.22,9.96,2.85,15.59,11.16,15.59c3.72,0,7.5-1.82,9.38-4.5
		l2.23,3.72c-3.05,4.42-10.47,7.71-18.78,7.71c-14.03,0-23.4-9.7-21.83-22.51c1.57-12.82,13.33-22.51,27.27-22.51
		C522.22,74.97,529.25,80.42,528.37,87.61z"/>
	<path class="st1" d="M567.26,88.33l15.51,30.8h-19.05L553.6,98.62l-0.95,0.72l-2.43,19.79h-17.49l7.44-60.61l17.81-2.6l-4.5,36.69
		l22.15-16.77h8.23L567.26,88.33z"/>
	<path class="st1" d="M589.35,84.44l22.63-3.3l-7.32,59.63c-1.49,12.1-13.61,21.23-28.35,21.23c-11.66,0-19.92-5.28-19.07-12.21
		c0.59-4.84,4.56-8.47,9.29-8.47c5.06,0,8.47,3.63,7.87,8.47c-0.18,1.49-0.72,2.87-1.52,4.07c5.05-1.18,8.62-5.39,9.34-11.33
		L589.35,84.44z M614.22,65.52c-0.8,6.49-6.14,11.44-12.52,11.44c-6.82,0-11.27-4.95-10.48-11.44c0.8-6.49,6.45-11.33,13.27-11.33
		C610.89,54.19,615.02,59.03,614.22,65.52z"/>
	<path class="st1" d="M671.01,75.4l-5.37,43.73h-17.49l0.71-5.8c-3.5,4.06-8.66,6.67-13.98,6.67c-10.39,0-16.99-9.7-15.42-22.51
		c1.57-12.82,10.47-22.51,20.77-22.51c5.48,0,10.16,2.8,12.48,6.99L653.2,78L671.01,75.4z M649.61,107.25l2.36-19.26
		c-1.09-2.86-3.27-4.63-5.84-4.63c-4.24,0-7.79,5.63-8.83,14.11c-1.05,8.57,1.2,14.2,5.62,14.2
		C645.35,111.68,647.77,110.02,649.61,107.25z"/>
	<path class="st1" d="M721.29,87.61c-0.51,4.16-4.02,7.36-8.09,7.36c-4.42,0-7.31-3.2-6.8-7.36c0.31-2.54,1.81-4.73,3.94-6.04
		c-0.17-0.01-0.34-0.02-0.52-0.02c-7.79,0-13.01,5.8-14.25,15.93c-1.22,9.96,2.85,15.59,11.16,15.59c3.72,0,7.5-1.82,9.38-4.5
		l2.23,3.72c-3.05,4.42-10.47,7.71-18.78,7.71c-14.03,0-23.4-9.7-21.83-22.51c1.57-12.82,13.33-22.51,27.27-22.51
		C715.14,74.97,722.17,80.42,721.29,87.61z"/>
	<path class="st1" d="M760.18,88.33l15.51,30.8h-19.05l-10.12-20.51l-0.95,0.72l-2.43,19.79h-17.49l7.44-60.61l17.81-2.6l-4.5,36.69
		l22.15-16.77h8.23L760.18,88.33z"/>
</g>
</svg>
